<svg id="SvgjsSvg1008" xmlns="http://www.w3.org/2000/svg" version="1.1" xmlns:xlink="http://www.w3.org/1999/xlink" xmlns:svgjs="http://svgjs.com/svgjs" width="23" height="17"><defs id="SvgjsDefs1009"><clipPath id="SvgjsClipPath1013"><path id="SvgjsPath1012" d="M712 38L712 35L735 35L735 38Z " fill="#ffffff"></path></clipPath><clipPath id="SvgjsClipPath1017"><path id="SvgjsPath1016" d="M712 45L712 42L735 42L735 45Z " fill="#ffffff"></path></clipPath><clipPath id="SvgjsClipPath1021"><path id="SvgjsPath1020" d="M712 52L712 49L735 49L735 52Z " fill="#ffffff"></path></clipPath></defs><path id="SvgjsPath1010" d="M712 38L712 35L735 35L735 38Z " fill="#ffffff" transform="matrix(1,0,0,1,-712,-35)"></path><path id="SvgjsPath1011" d="M712 38L712 35L735 35L735 38Z " fill-opacity="0" fill="#ffffff" stroke-dasharray="0" stroke-linejoin="miter" stroke-linecap="butt" stroke-opacity="1" stroke="#ffffff" stroke-miterlimit="50" stroke-width="10" clip-path="url(&quot;#SvgjsClipPath1013&quot;)" transform="matrix(1,0,0,1,-712,-35)"></path><path id="SvgjsPath1014" d="M712 45L712 42L735 42L735 45Z " fill="#ffffff" transform="matrix(1,0,0,1,-712,-35)"></path><path id="SvgjsPath1015" d="M712 45L712 42L735 42L735 45Z " fill-opacity="0" fill="#ffffff" stroke-dasharray="0" stroke-linejoin="miter" stroke-linecap="butt" stroke-opacity="1" stroke="#ffffff" stroke-miterlimit="50" stroke-width="10" clip-path="url(&quot;#SvgjsClipPath1017&quot;)" transform="matrix(1,0,0,1,-712,-35)"></path><path id="SvgjsPath1018" d="M712 52L712 49L735 49L735 52Z " fill="#ffffff" transform="matrix(1,0,0,1,-712,-35)"></path><path id="SvgjsPath1019" d="M712 52L712 49L735 49L735 52Z " fill-opacity="0" fill="#ffffff" stroke-dasharray="0" stroke-linejoin="miter" stroke-linecap="butt" stroke-opacity="1" stroke="#ffffff" stroke-miterlimit="50" stroke-width="10" clip-path="url(&quot;#SvgjsClipPath1021&quot;)" transform="matrix(1,0,0,1,-712,-35)"></path></svg>