<svg id="SvgjsSvg1000" xmlns="http://www.w3.org/2000/svg" version="1.1" xmlns:xlink="http://www.w3.org/1999/xlink" xmlns:svgjs="http://svgjs.com/svgjs" width="13" height="14"><defs id="SvgjsDefs1001"></defs><path id="SvgjsPath1007" d="M1264 770.222C1264 769.055 1262.98 768 1261.85 768L1253.23 768C1252.09 768 1251.07 769.055 1251.07 770.222L1251.07 779.111C1251.07 780.279 1252.09 781.333 1253.23 781.333L1257.54 781.333L1257.54 776.2959999999999L1255.96 776.2959999999999L1255.96 774.074L1257.54 774.074L1257.54 773.208C1257.54 771.7149999999999 1258.62 770.37 1259.96 770.37L1261.7 770.37L1261.7 772.593L1259.96 772.593C1259.77 772.593 1259.55 772.831 1259.55 773.189L1259.55 774.074L1261.7 774.074L1261.7 776.2959999999999L1259.55 776.2959999999999L1259.55 781.333L1261.85 781.333C1262.98 781.333 1264 780.279 1264 779.111Z " fill="#ffffff" transform="matrix(1,0,0,1,-1251,-768)"></path></svg>